<svg xmlns="http://www.w3.org/2000/svg" xmlns:xlink="http://www.w3.org/1999/xlink" version="1.1" x="0px" y="0px" viewBox="50 50 400 400" style="enable-background:new 0 0 500 500;" xml:space="preserve">
<g id="OBJECTS">
	<g>
		<polygon style="fill:#2f2d2d;" points="164.5,320.5 166,466 176,466 181,320   "/>
		<polygon style="fill:#2f2d2d;" points="193.667,277.667 161,313 275.667,313 311,278.333   "/>
		<rect x="161" y="313" style="fill:#2f2d2d;" width="115.333" height="10.667"/>
		<g>
			<g>
				<g>
					<path style="fill:#2f2d2d;" d="M164.25,323.5c0.998,0.264,1.675,0.409,2.874,0.432c0.203,0.003,0.533,0.009,1.22,0.02       c1.278,0.018,4.304,0.061,4.304,0.061s2.533,0.039,3.937,0.06c0.916,0.012,1.483,0.02,1.78,0.024       c1.199,0.012,1.881-0.113,2.885-0.348c-0.998-0.264-1.675-0.409-2.874-0.432c-0.297-0.005-0.864-0.014-1.78-0.029       c-1.404-0.02-3.937-0.055-3.937-0.055s-3.026-0.046-4.304-0.066c-0.686-0.009-1.017-0.013-1.22-0.016       C165.937,323.141,165.255,323.266,164.25,323.5z"/>
				</g>
			</g>
		</g>
		<path style="fill:#2f2d2d;" d="M276.333,323.667L311,287v-8.667L275.667,313C275.667,313,276.792,323.208,276.333,323.667z"/>
		<polygon style="fill:#2f2d2d;" points="193.5,320.5 195,440 204,440 210,320   "/>
		<g>
			<g>
				<g>
					<path style="fill:#2f2d2d;" d="M193.25,323.75c0.997,0.264,1.675,0.409,2.874,0.434c0.203,0.004,0.534,0.009,1.22,0.021       c1.2,0.017,4.043,0.059,4.043,0.059s2.379,0.038,3.698,0.059c0.916,0.012,1.483,0.02,1.78,0.024       c1.199,0.012,1.881-0.112,2.886-0.346c-0.998-0.264-1.675-0.409-2.874-0.434c-0.297-0.005-0.864-0.014-1.78-0.03       c-1.319-0.019-3.699-0.053-3.699-0.053s-2.842-0.045-4.042-0.064c-0.686-0.009-1.017-0.014-1.22-0.016       C194.937,323.392,194.255,323.516,193.25,323.75z"/>
				</g>
			</g>
		</g>
		<polygon style="fill:#2f2d2d;" points="272.5,320.5 271,466 262,466 257,320   "/>
		<g>
			<g>
				<g>
					<path style="fill:#2f2d2d;" d="M256.75,323.5c0.997,0.266,1.675,0.411,2.873,0.437c0.203,0.004,0.534,0.01,1.22,0.022       c1.006,0.016,3.39,0.053,3.39,0.053s1.995,0.034,3.101,0.054c0.916,0.014,1.483,0.022,1.78,0.026       c1.199,0.014,1.881-0.11,2.886-0.343c-0.997-0.266-1.675-0.411-2.873-0.437c-0.297-0.005-0.864-0.015-1.78-0.032       c-1.106-0.017-3.101-0.048-3.101-0.048s-2.384-0.041-3.39-0.058c-0.686-0.01-1.017-0.015-1.22-0.018       C258.437,323.144,257.755,323.267,256.75,323.5z"/>
				</g>
			</g>
		</g>
		<polygon style="fill:#2f2d2d;" points="289.333,304.167 287.833,439 278.833,439 275.833,304.667   "/>
		<g>
			<g>
				<g>
					<path style="fill:#2f2d2d;" d="M276.333,313c-0.249,1.001-0.384,1.681-0.39,2.88c0,0.204-0.001,0.534-0.002,1.22       c0.001,0.296,0.002,0.996,0.002,0.996s-0.002,0.586-0.003,0.911c0.001,0.916,0.002,1.482,0.003,1.78       c0.006,1.199,0.141,1.879,0.39,2.88c0.249-1.001,0.384-1.681,0.39-2.88c0-0.298,0.001-0.864,0.003-1.78       c-0.001-0.325-0.003-0.911-0.003-0.911s0.002-0.7,0.002-0.996c-0.001-0.686-0.002-1.016-0.002-1.22       C276.717,314.681,276.582,314.001,276.333,313z"/>
				</g>
			</g>
		</g>
		<g>
			<g>
				<g>
					<path style="fill:#2f2d2d;" d="M161,313c1.001,0.249,1.681,0.384,2.88,0.39c13.728,0,82.478,0,82.478,0s2.638,0,8.322,0.001       c2.842,0,6.445,0,10.861,0.001c2.208,0,4.619,0,7.24,0c0.655,0,1.323,0,2.005,0c0.341,0,0.685,0,1.032,0       c0.197-0.005,0.267,0.011,0.689-0.011l0.483-0.483c1.001-1.001,2.04-2.04,3.117-3.117c7.046-7.046,24.284-24.286,29.133-29.136       c0.843-0.852,1.229-1.428,1.761-2.312c-0.884,0.532-1.46,0.917-2.312,1.761c-4.849,4.849-22.089,22.087-29.136,29.133       c-1.077,1.077-2.116,2.116-3.117,3.117c-0.391,0.358-0.102,0.25-0.618,0.264c-0.347,0-0.691,0-1.032,0c-0.681,0-1.35,0-2.005,0       c-2.62,0-5.032,0-7.24,0c-4.416,0-8.019,0-10.861,0.001c-5.684,0-8.322,0.001-8.322,0.001s-68.75,0-82.478,0       C162.681,312.616,162.001,312.751,161,313z"/>
				</g>
			</g>
		</g>
	</g>
	<g>
		<g>
			<path style="fill:#9a1d71;" d="M187.667,230c0,0-11.667,37.5-7.167,53s22.5,19.5,40.5,20s68,7,68,7l31.5,1     c0,0,19.375-14.625,10.375-29.625L235.333,249.5l-0.667-19.667L187.667,230z"/>
			<path style="fill:#9a1d71;" d="M334.8,290.197L325.333,410l-30.667,1L284,266l42.949,13.876c0.226,0.073,0.456,0.135,0.686,0.194     c0.064,0.016,0.138,0.036,0.219,0.058C332.279,281.359,335.162,285.619,334.8,290.197z"/>
		</g>
		<g>
			<path style="fill:#2f2d2d;" d="M325.333,410c0,0,3,26.667,4.667,31.667c1.667,5,5.667,11,10.667,13.333s11.055,6.909-1,10     c-13,3.333-30.333-2.333-34.333-15.333s-13-15.667-13-22.333c0-6.667,2.333-16.333,2.333-16.333L325.333,410z"/>
			<polygon style="fill:#2f2d2d;" points="292.333,427.333 297,466.333 300.333,466.333 299.667,435.667    "/>
		</g>
	</g>
	<g>
		<path style="fill:#9a1d71;" d="M233.917,228.5l73.339,2.948c14.012,0.563,24.481,13.093,22.543,26.982L315.417,361.5h-24.5    L284,266l-50.083-14.833V228.5z"/>
		<g>
			<g>
				<g>
					<path style="fill:#2f2d2d;" d="M291,362c0.176-1.017,0.261-1.705,0.18-2.901c-0.568-7.788-3.412-46.788-3.412-46.788       s-2.642-36.233-3.169-43.467c-0.093-1.195-0.277-1.863-0.598-2.844c-0.176,1.017-0.261,1.705-0.18,2.901       c0.528,7.235,3.169,43.467,3.169,43.467s2.844,39,3.412,46.788C290.495,360.351,290.679,361.019,291,362z"/>
				</g>
			</g>
		</g>
		<g>
			<g>
				<g>
					<path style="fill:#2f2d2d;" d="M315.5,362c0.39-0.956,0.62-1.609,0.797-2.795c0.949-6.575,5.701-39.502,5.701-39.502       s4.426-30.672,5.31-36.797c0.165-1.187,0.129-1.879,0.025-2.906c-0.39,0.956-0.62,1.609-0.797,2.795       c-0.884,6.125-5.31,36.797-5.31,36.797s-4.752,32.927-5.701,39.502C315.36,360.281,315.396,360.973,315.5,362z"/>
				</g>
			</g>
		</g>
		<g>
			<g>
				<g>
					<path style="fill:#2f2d2d;" d="M233.917,249c0.868,0.558,1.469,0.904,2.602,1.295c3.825,1.298,22.978,7.8,22.978,7.8       s18.047,6.126,21.651,7.349c1.137,0.38,1.824,0.47,2.853,0.556c-0.868-0.558-1.469-0.904-2.602-1.295       c-3.604-1.223-21.651-7.349-21.651-7.349s-19.153-6.501-22.978-7.8C235.632,249.177,234.945,249.086,233.917,249z"/>
				</g>
			</g>
		</g>
		<path style="fill:#2f2d2d;" d="M315.5,362c0,0-2.833,20.667-1.5,29c1.333,8.333,4.333,17.333,10,20    c5.667,2.667,5.333,8.333-6.667,7.667c-12-0.667-23.667-3-25.333-15.667c-1.667-12.667-7.667-17.667-6.667-26S291,362,291,362    H315.5z"/>
		<polygon style="fill:#2f2d2d;" points="285,378.667 283.667,414 286.667,414 291,388.667   "/>
		<g>
			<g>
				<g>
					<path style="fill:#FFFFFF;" d="M294.667,411c0.264,0.557,0.494,0.932,1.035,1.42c0.073,0.067,0.183,0.167,0.319,0.291       c0.066,0.064,0.149,0.122,0.233,0.19c0.225,0.178,0.457,0.362,0.696,0.55c0.265,0.182,0.537,0.37,0.815,0.562       c2.233,1.535,5.225,2.735,8.169,3.46c2.947,0.766,5.854,0.933,7.98,1.057c1.066,0.043,1.944-0.004,2.555,0.002       c0.611-0.006,0.955-0.009,0.955-0.009s0.345,0.014,0.953-0.045c0.609-0.047,1.483-0.115,2.546-0.197       c1.068-0.044,2.301-0.297,3.656-0.466c0.338-0.048,0.683-0.097,1.034-0.147l0.264-0.038l0.163-0.023       c0.088,0.01,0.164-0.113,0.195-0.124c0.144-0.13,0.273-0.269,0.397-0.417c0.478-0.587,0.867-1.353,0.833-2.187       c-0.019-0.833-0.426-1.593-0.931-2.201c-0.54-0.578-1.142-1.091-1.79-1.487c-1.273-0.767-2.463-1.661-3.368-2.515       c-0.342-0.319-0.6-0.6-0.724-0.743c-0.457-0.532-0.751-0.793-1.151-1.265c0.131,0.606,0.324,1.014,0.799,1.574       c0.129,0.152,0.399,0.447,0.752,0.777c0.927,0.878,2.167,1.804,3.432,2.565c0.632,0.385,1.192,0.869,1.692,1.4       c0.461,0.557,0.802,1.215,0.818,1.904c0.032,0.689-0.297,1.351-0.724,1.877c-0.109,0.131-0.226,0.257-0.349,0.367       c0.038,0.028-0.234,0.043-0.386,0.072c-0.348,0.05-0.691,0.099-1.027,0.146c-1.346,0.168-2.572,0.42-3.63,0.464       c-1.054,0.082-1.922,0.149-2.526,0.196c-0.603,0.059-0.945,0.045-0.945,0.045s-0.341,0.003-0.946,0.009       c-0.605-0.006-1.476,0.04-2.531-0.003c-2.104-0.124-4.98-0.289-7.883-1.045c-2.901-0.715-5.841-1.896-8.02-3.395       c-0.272-0.187-0.537-0.37-0.795-0.548c-0.232-0.184-0.458-0.362-0.677-0.535c-0.081-0.066-0.162-0.122-0.227-0.184       c-0.132-0.119-0.239-0.216-0.31-0.28C295.486,411.604,295.164,411.37,294.667,411z"/>
				</g>
			</g>
		</g>
	</g>
	<path style="fill:#2f2d2d;" d="M214,51.667c0,0-17.986,2.382-23.333,22c-5.171,18.969-11.667,21-11.667,43.667   c0,22.667,14.333,43,45.667,41.667c0,0,32.333-4.667,29.333-28.333c-3-23.667-9.112-29.4-11.333-53   C240,49.333,215.667,51.333,214,51.667z"/>
	<g>
		<path style="fill:#ffcd94;" d="M195.667,89c0,0,2,28.333,23.667,28C241,116.667,242,80,233,70s-18-13-28.667-4.333    C204.333,65.667,196,70.667,195.667,89z"/>
		<g>
			<polygon style="fill:#ffcd94;" points="206.667,110 206.667,116.333 200,118 233.667,178.333 241.667,123.333 234.667,119.667      234,103.667    "/>
			<g>
				<g>
					<g>
						<path style="fill:#2f2d2d;" d="M206.667,116.333c-0.217,0.337-0.33,0.563-0.298,0.938c0.041,0.41,0.243,2.434,0.243,2.434        s0.202,2.024,0.243,2.434c0.043,0.374,0.199,0.572,0.478,0.86c0.217-0.337,0.33-0.563,0.298-0.938        c-0.041-0.41-0.243-2.434-0.243-2.434s-0.202-2.024-0.243-2.435C207.101,116.82,206.946,116.621,206.667,116.333z"/>
					</g>
				</g>
			</g>
			<g>
				<g>
					<g>
						<path style="fill:#2f2d2d;" d="M234.667,119.667c-0.249,1.001-0.384,1.681-0.39,2.88c0,0.204-0.001,0.534-0.002,1.22        c0.001,0.606,0.002,2.04,0.002,2.04s-0.002,1.201-0.003,1.867c0.001,0.916,0.002,1.483,0.003,1.78        c0.006,1.199,0.141,1.879,0.39,2.88c0.249-1.001,0.384-1.681,0.39-2.88c0-0.297,0.001-0.864,0.003-1.78        c-0.001-0.666-0.003-1.867-0.003-1.867s0.002-1.434,0.002-2.04c-0.001-0.686-0.002-1.016-0.002-1.22        C235.051,121.348,234.916,120.668,234.667,119.667z"/>
					</g>
				</g>
			</g>
		</g>
		<g>
			
				<ellipse transform="matrix(0.2305 -0.9731 0.9731 0.2305 60.8548 266.7856)" style="fill:#ffcd94;" cx="199.105" cy="94.917" rx="7.333" ry="7.333"/>
			<path style="fill:#2f2d2d;" d="M208,89c0,1.289-1.045,2.333-2.333,2.333c-1.289,0-2.333-1.045-2.333-2.333     s1.045-2.333,2.333-2.333C206.955,86.667,208,87.711,208,89z"/>
			<path style="fill:#2f2d2d;" d="M229,85.667c0,1.289-1.045,2.333-2.333,2.333c-1.289,0-2.333-1.045-2.333-2.333     c0-1.289,1.045-2.333,2.333-2.333C227.955,83.333,229,84.378,229,85.667z"/>
			<g>
				<g>
					<g>
						<path style="fill:#2f2d2d;" d="M219.333,83.667c-0.604,0.836-0.953,1.468-1.246,2.655c-0.048,0.201-0.122,0.531-0.24,1.223        c-0.154,0.843-0.27,2.299-0.133,3.541c0.031,0.622,0.2,1.179,0.273,1.586c0.13,0.397,0.212,0.644,0.212,0.644        s0.254,0.845,0.881,1.776c0.148,0.209,0.304,0.429,0.463,0.652l0.149,0.153c0.072,0.074,0.034,0.032,0.047,0.044        c-0.022,0,0.054,0-0.049,0c-0.126,0-0.247,0-0.362,0c-0.916,0.001-1.483,0.002-1.78,0.003c-1.199,0.006-1.879,0.141-2.88,0.39        c1.001,0.249,1.681,0.384,2.88,0.39c0.297,0.001,0.864,0.001,1.78,0.003c0.335,0,0.703,0,1.092,0c0.268,0,0.544,0,0.823,0        h0.211c0.049-0.008,0.205,0.025,0.108-0.04l-0.261-0.267c-0.35-0.357-0.705-0.72-1.055-1.076        c-0.106-0.102-0.149-0.16-0.179-0.209l-0.113-0.162c-0.075-0.107-0.149-0.213-0.221-0.315        c-0.563-0.832-0.797-1.599-0.797-1.599s-0.074-0.225-0.192-0.586c-0.064-0.376-0.221-0.882-0.248-1.464        c-0.126-1.153-0.018-2.534,0.128-3.339c0.113-0.661,0.181-0.978,0.226-1.171C219.117,85.356,219.192,84.688,219.333,83.667z"/>
					</g>
				</g>
			</g>
			<g>
				<g>
					<g>
						<path style="fill:#2f2d2d;" d="M213.667,93.333c-0.273,0.065-0.425,0.117-0.468,0.265c-0.044,0.174-0.243,0.974-0.243,0.974        s-0.2,0.8-0.243,0.974C212.68,95.697,212.789,95.814,213,96c0.273-0.065,0.425-0.117,0.468-0.265        c0.044-0.174,0.243-0.974,0.243-0.974s0.2-0.8,0.243-0.974C213.987,93.636,213.877,93.519,213.667,93.333z"/>
					</g>
				</g>
			</g>
			<g>
				<g>
					<g>
						<path style="fill:#2f2d2d;" d="M214,99.667c0.619,0.824,1.15,1.346,2.292,1.863c0.193,0.085,0.514,0.227,1.224,0.399        c0.355,0.116,1.249,0.143,1.249,0.143c0,0.009,0.187-0.002,0.427-0.034c0.24-0.025,0.533-0.053,0.729-0.138        c0.237-0.084,0.465-0.134,0.645-0.231c0.178-0.103,0.336-0.194,0.475-0.275c0.292-0.147,0.441-0.332,0.566-0.433        c0.97-0.876,1.151-1.646,1.393-2.627c-0.692,0.773-1.076,1.31-1.904,2.038c-0.106,0.083-0.233,0.248-0.474,0.36        c-0.114,0.067-0.244,0.142-0.389,0.227c-0.147,0.081-0.334,0.115-0.526,0.186c-0.321,0.118-0.95,0.147-0.95,0.147        s-0.753-0.03-1.069-0.128c-0.623-0.15-0.916-0.275-1.092-0.352C215.552,100.349,214.931,100.103,214,99.667z"/>
					</g>
				</g>
			</g>
			<circle style="fill:#ffcd94;" cx="238.772" cy="88.75" r="7.333"/>
			<g>
				<g>
					<g>
						<path style="fill:#2f2d2d;" d="M237.833,95.833c0.31-0.984,0.487-1.655,0.566-2.85c0.013-0.204,0.034-0.533,0.077-1.218        c0.019-0.324,0.065-1.091,0.065-1.091s0.041-0.642,0.064-0.998c0.055-0.914,0.089-1.48,0.107-1.777        c0.068-1.197-0.025-1.884-0.212-2.898c-0.31,0.984-0.487,1.655-0.566,2.851c-0.019,0.297-0.054,0.862-0.112,1.776        c-0.021,0.356-0.059,0.999-0.059,0.999s-0.049,0.767-0.069,1.091c-0.041,0.685-0.061,1.014-0.073,1.218        C237.553,94.132,237.646,94.818,237.833,95.833z"/>
					</g>
				</g>
			</g>
			<path style="fill:#2f2d2d;" d="M197.882,85.253l11.053-2.525C208.935,82.728,201.561,77.155,197.882,85.253z"/>
			<path style="fill:#2f2d2d;" d="M232.847,80.565l-11.338,0.118C221.509,80.683,227.383,73.546,232.847,80.565z"/>
			<path style="fill:#2f2d2d;" d="M195.333,88.417c0,0,12.333-5.417,9.667-21.083c0,0,8.333,5.333,13.667-5.333c0,0,6,14,19,19.333     c0,0-0.833-23.417-24.5-21.667C213.167,59.667,194.333,62.083,195.333,88.417z"/>
			<g>
				<g>
					<g>
						<path style="fill:#2f2d2d;" d="M208,113.5c0.691,0.768,1.233,1.237,2.313,1.795c0.148,0.072,0.371,0.18,0.647,0.314        c0.14,0.063,0.293,0.133,0.457,0.207c0.258,0.116,0.579,0.252,0.896,0.374c1.282,0.515,2.853,0.988,4.399,1.242        c1.544,0.267,3.054,0.3,4.158,0.209c1.105-0.085,1.808-0.239,1.808-0.239s0.419-0.082,1.096-0.258        c0.67-0.198,1.602-0.493,2.573-0.991c0.992-0.459,1.988-1.152,2.913-1.863c0.897-0.748,1.707-1.54,2.32-2.25        c0.611-0.707,0.968-1.16,1.133-1.412c0.734-0.974,0.959-1.658,1.285-2.628c-0.755,0.715-1.191,1.226-1.911,2.161        c-0.163,0.243-0.509,0.679-1.098,1.36c-0.591,0.684-1.368,1.443-2.223,2.158c-0.882,0.677-1.828,1.338-2.767,1.772        c-0.919,0.473-1.801,0.752-2.434,0.941c-0.64,0.166-1.037,0.245-1.037,0.245s-0.666,0.144-1.716,0.225        c-1.049,0.086-2.488,0.054-3.97-0.203c-1.483-0.245-3-0.7-4.241-1.199c-0.307-0.118-0.618-0.25-0.868-0.362        c-0.159-0.072-0.308-0.138-0.443-0.199c-0.268-0.128-0.484-0.232-0.628-0.301C209.608,114.066,208.968,113.853,208,113.5z"/>
					</g>
				</g>
			</g>
		</g>
		<g>
			<g>
				<g>
					<path style="fill:#2f2d2d;" d="M199.105,102.25c0.048-1.031,0.046-1.724-0.184-2.9c-0.04-0.2-0.104-0.523-0.238-1.197       c-0.099-0.49-0.333-1.65-0.333-1.65s-0.193-0.972-0.3-1.511c-0.181-0.898-0.294-1.453-0.352-1.745       c-0.242-1.174-0.507-1.814-0.949-2.747c-0.047,1.031-0.046,1.724,0.184,2.9c0.058,0.292,0.168,0.847,0.347,1.746       c0.109,0.538,0.305,1.51,0.305,1.51s0.231,1.161,0.329,1.651c0.136,0.673,0.202,0.996,0.242,1.196       C198.399,100.677,198.664,101.317,199.105,102.25z"/>
				</g>
			</g>
		</g>
	</g>
	<g>
		<g>
			<path style="fill:#2f2d2d;" d="M200,118l-20,7l7.667,105c0,0,18.586,4.709,34.583,5c13.75,0.25,29.75-5,29.75-5l2-99.333     l-12.333-7.333l-8,55L200,118z"/>
			<g>
				<defs fill="#2f2d2d">
					<path id="SVGID_1_" d="M200,118l-20,7l7.667,105c12.083,3,26.348,4.551,33.083,5c11.25,0.75,31.25-5,31.25-5l2-99.333       l-12.333-7.333l-8,55L200,118z" fill="#2f2d2d"/>
				</defs>
				<clipPath id="SVGID_00000017510511308839135050000009966132536624145543_" fill="#2f2d2d">
					<use xlink:href="#SVGID_1_" style="overflow:visible;" fill="#2f2d2d"/>
				</clipPath>
				<g style="opacity:0.54;clip-path:url(#SVGID_00000017510511308839135050000009966132536624145543_);">
					<circle style="fill:#2f2d2d;" cx="195.5" cy="130" r="13.5"/>
					<circle style="fill:#2f2d2d;" cx="235" cy="135.5" r="13.5"/>
					<circle style="fill:#2f2d2d;" cx="253.5" cy="163.5" r="13.5"/>
					<circle style="fill:#2f2d2d;" cx="251.5" cy="196" r="13.5"/>
					<circle style="fill:#2f2d2d;" cx="234.5" cy="227.5" r="13.5"/>
					<circle style="fill:#2f2d2d;" cx="217.5" cy="196.5" r="13.5"/>
					<circle style="fill:#2f2d2d;" cx="182.5" cy="195.5" r="13.5"/>
					<circle style="fill:#2f2d2d;" cx="198" cy="226" r="13.5"/>
					<circle style="fill:#2f2d2d;" cx="220.5" cy="164.5" r="13.5"/>
					<circle style="fill:#2f2d2d;" cx="189.5" cy="162.5" r="13.5"/>
				</g>
			</g>
			<g>
				<g>
					<g>
						<path style="fill:#FFFFFF;" d="M241.667,123.333c0.404,0.468,0.669,0.779,1.212,1.239c0.069,0.06,0.171,0.148,0.297,0.257        c0.062,0.055,0.13,0.116,0.203,0.181c0.195,0.181,0.396,0.367,0.602,0.559c0.309,0.303,0.626,0.616,0.932,0.952        c1.238,1.329,2.419,2.948,3.255,4.803c0.405,0.932,0.707,1.921,0.883,2.935c0.178,1.017,0.163,2.056,0.053,3.071        c-0.285,2.03-1.14,3.91-2.217,5.453c-1.076,1.553-2.335,2.792-3.444,3.822c-0.585,0.484-1.123,0.931-1.606,1.33        c-0.505,0.372-0.952,0.701-1.33,0.98c-0.155,0.114-0.303,0.223-0.443,0.326l-0.064,0.047        c-0.017,0.016,0.026,0.039,0.035,0.058l0.098,0.112c0.061,0.071,0.121,0.14,0.179,0.207c0.125,0.153,0.235,0.287,0.329,0.402        c0.175,0.225,0.291,0.374,0.339,0.435c0.57,0.753,0.839,1.168,0.987,1.378c0.141,0.215,0.152,0.233,0.152,0.233        s0.283,0.42,0.745,1.19c0.452,0.775,1.08,1.906,1.68,3.352c0.6,1.442,1.167,3.215,1.372,5.204        c0.237,1.982,0.014,4.182-0.792,6.234c-1.614,4.166-5.677,7.137-9.042,8.84c-0.41,0.234-0.768,0.384-0.943,0.467        c-0.648,0.301-0.982,0.543-1.47,0.931c0.605-0.113,1.012-0.21,1.672-0.509c0.178-0.082,0.54-0.234,0.957-0.471        c0.423-0.228,0.856-0.462,1.297-0.7c0.454-0.256,0.893-0.559,1.351-0.843c0.465-0.274,0.894-0.618,1.337-0.949        c0.453-0.32,0.879-0.683,1.292-1.069c1.672-1.505,3.156-3.386,3.985-5.524c0.838-2.131,1.067-4.417,0.822-6.457        c-0.212-2.05-0.793-3.863-1.406-5.334c-0.611-1.476-1.25-2.625-1.71-3.412c-0.47-0.782-0.758-1.208-0.758-1.208        s-0.012-0.018-0.155-0.236c-0.15-0.214-0.423-0.635-1.003-1.401c-0.049-0.063-0.167-0.214-0.345-0.444        c-0.088-0.109-0.192-0.236-0.31-0.38c-0.01-0.012-0.025-0.029-0.02-0.023c0,0-0.035,0.026,0.102-0.075        c0.383-0.282,0.835-0.615,1.347-0.992c0.49-0.406,1.037-0.858,1.63-1.35c1.129-1.048,2.413-2.31,3.52-3.906        c1.107-1.585,2-3.536,2.297-5.658c0.117-1.06,0.13-2.148-0.055-3.208c-0.184-1.058-0.498-2.085-0.917-3.049        c-0.864-1.919-2.077-3.576-3.34-4.933c-0.313-0.343-0.635-0.663-0.951-0.972c-0.161-0.151-0.32-0.3-0.477-0.447l-0.138-0.123        c-0.074-0.066-0.144-0.128-0.207-0.184c-0.129-0.111-0.234-0.2-0.305-0.261C242.623,123.751,242.244,123.558,241.667,123.333z        "/>
					</g>
				</g>
			</g>
			<g>
				<g>
					<g>
						<path style="fill:#FFFFFF;" d="M200,118c-0.384,0.486-0.616,0.838-0.884,1.509c-0.036,0.091-0.089,0.228-0.156,0.398        c-0.032,0.085-0.067,0.179-0.104,0.279c-0.084,0.231-0.17,0.466-0.256,0.704c-0.094,0.273-0.189,0.55-0.285,0.831        c-0.182,0.565-0.372,1.146-0.541,1.747c-0.692,2.397-1.277,5.075-1.471,7.881c-0.214,2.796-0.003,5.745,0.909,8.449        c0.472,1.344,1.122,2.607,1.923,3.729c0.831,1.095,1.767,2.077,2.814,2.829c2.07,1.55,4.321,2.377,6.235,2.917        c0.975,0.201,1.858,0.432,2.652,0.539c0.794,0.103,1.483,0.192,2.048,0.265c1.136,0.065,1.777,0.102,1.777,0.102        s0.036,0.002,0.415,0.023c0.083,0.005,0.186,0.01,0.311,0.017c-0.01,0.004,0.001-0.017-0.013,0.039        c-0.067,0.321-0.175,0.891-0.28,1.555c-0.055,0.447-0.529,3.065-0.469,6.899c0.035,1.913,0.249,4.13,0.812,6.454        c0.574,2.312,1.553,4.748,3.141,6.843c0.777,1.059,1.737,1.985,2.759,2.817c1.056,0.788,2.181,1.486,3.375,1.985        c0.593,0.259,1.184,0.506,1.796,0.674c0.302,0.094,0.603,0.188,0.902,0.282c0.305,0.068,0.608,0.135,0.909,0.202        c0.602,0.136,1.196,0.264,1.79,0.321c0.286,0.037,0.567,0.073,0.841,0.108c0.433,0.067,0.792,0.077,0.977,0.085        c0.724,0.033,1.14-0.028,1.743-0.148c-0.598-0.179-0.997-0.28-1.709-0.319c-0.182-0.009-0.535-0.02-0.96-0.086        c-0.27-0.035-0.545-0.07-0.826-0.106c-0.584-0.055-1.165-0.181-1.754-0.314c-0.294-0.065-0.591-0.131-0.89-0.197        c-0.291-0.091-0.585-0.183-0.88-0.275c-0.598-0.163-1.174-0.404-1.75-0.656c-1.161-0.485-2.251-1.162-3.275-1.925        c-0.99-0.806-1.919-1.702-2.673-2.729c-1.539-2.031-2.497-4.405-3.06-6.672c-0.552-2.279-0.764-4.463-0.799-6.351        c-0.06-3.785,0.408-6.377,0.462-6.817c0.111-0.688,0.194-1.145,0.292-1.604c0.039-0.18,0.075-0.346,0.108-0.499        c-0.171-0.01-0.327-0.018-0.47-0.026c-0.158-0.009-0.287-0.016-0.393-0.022c-0.375-0.021-0.41-0.023-0.41-0.023        s-0.633-0.036-1.755-0.101c-0.557-0.072-1.235-0.16-2.018-0.262c-0.782-0.105-1.647-0.333-2.605-0.53        c-1.875-0.529-4.07-1.339-6.071-2.838c-1.013-0.727-1.914-1.675-2.716-2.73c-0.771-1.082-1.4-2.302-1.858-3.605        c-0.884-2.623-1.095-5.509-0.884-8.262c0.191-2.761,0.768-5.41,1.453-7.783c0.167-0.595,0.355-1.17,0.536-1.73        c0.095-0.278,0.19-0.552,0.283-0.823c0.086-0.236,0.17-0.468,0.254-0.697c0.037-0.099,0.071-0.192,0.102-0.276        c0.065-0.168,0.117-0.304,0.152-0.394C199.81,119.012,199.888,118.608,200,118z"/>
					</g>
				</g>
			</g>
			<g>
				<g>
					<g>
						<path style="fill:#FFFFFF;" d="M232.333,178.333c-0.148,0.601-0.227,1.01-0.229,1.729c0.014,4.157,0.081,24.969,0.081,24.969        s0.063,19.373,0.075,23.242c0.006,0.719,0.088,1.127,0.24,1.727c0.147-0.601,0.227-1.01,0.229-1.729        c-0.012-3.869-0.075-23.242-0.075-23.242s-0.067-20.812-0.081-24.969C232.567,179.341,232.485,178.934,232.333,178.333z"/>
					</g>
				</g>
			</g>
			<g>
				<circle style="fill:#FFFFFF;" cx="229" cy="187.5" r="1.958"/>
				<circle style="fill:#FFFFFF;" cx="229" cy="204" r="1.958"/>
				<path style="fill:#FFFFFF;" d="M230.958,219.179c0,1.082-0.877,1.958-1.958,1.958c-1.082,0-1.958-0.877-1.958-1.958      c0-1.081,0.877-1.958,1.958-1.958C230.082,217.221,230.958,218.097,230.958,219.179z"/>
			</g>
			<g>
				<g>
					<g>
						<path style="fill:#FFFFFF;" d="M195.667,175c0.605,0.132,1.015,0.2,1.734,0.182c1.608-0.048,9.651-0.288,9.651-0.288        s7.69-0.23,9.228-0.275c0.719-0.025,1.124-0.118,1.72-0.286c-0.605-0.132-1.015-0.2-1.734-0.182        c-1.538,0.046-9.228,0.276-9.228,0.276s-8.043,0.24-9.651,0.288C196.668,174.74,196.263,174.833,195.667,175z"/>
					</g>
				</g>
			</g>
			<g>
				<g>
					<g>
						<path style="fill:#FFFFFF;" d="M239.333,175c0.608,0.118,1.02,0.177,1.738,0.143c0.122-0.006,0.32-0.016,0.731-0.037        c1.15-0.061,3.874-0.205,3.874-0.205s2.28-0.119,3.544-0.185c0.549-0.03,0.888-0.048,1.066-0.058        c0.718-0.041,1.121-0.144,1.713-0.325c-0.608-0.118-1.02-0.177-1.738-0.143c-0.178,0.009-0.518,0.027-1.067,0.055        c-1.264,0.067-3.544,0.188-3.544,0.188s-2.724,0.142-3.874,0.203c-0.411,0.022-0.609,0.033-0.731,0.04        C240.329,174.717,239.925,174.819,239.333,175z"/>
					</g>
				</g>
			</g>
			<g>
				<g>
					<g>
						<path style="fill:#FFFFFF;" d="M235.5,178.25c-0.147,0.602-0.226,1.01-0.226,1.729c0.02,4.186,0.121,25.143,0.121,25.143        s0.094,19.506,0.113,23.401c0.007,0.719,0.09,1.127,0.242,1.727c0.147-0.602,0.225-1.01,0.226-1.729        c-0.019-3.896-0.113-23.401-0.113-23.401s-0.101-20.957-0.121-25.143C235.735,179.258,235.652,178.85,235.5,178.25z"/>
					</g>
				</g>
			</g>
		</g>
		<g>
			<path style="fill:#2f2d2d;" d="M180,125c0,0-14-1.333-17.667,20.667c-3.667,22,2.417,52.333,2.417,52.333l19.5-16.5L180,125z"/>
			<g>
				<g>
					<g>
						<path style="fill:#FFFFFF;" d="M184.25,181.5c0.155-0.6,0.24-1.007,0.25-1.726c0.019-2.079,0.112-12.479,0.112-12.479        s0.089-9.847,0.106-11.815c0.003-0.719-0.074-1.128-0.218-1.73c-0.155,0.6-0.239,1.007-0.25,1.726        c-0.018,1.968-0.106,11.815-0.106,11.815s-0.094,10.4-0.112,12.479C184.029,180.489,184.106,180.898,184.25,181.5z"/>
					</g>
				</g>
			</g>
		</g>
		<g>
			<path style="fill:#2f2d2d;" d="M176.25,122.75l15,8.25c0,0-9.25,30-10.917,41.333c-1.667,11.333-8.167,28.167-23,28.667     c-7.691,0.259-17.667-15.667-7.333-33S171.917,133.083,176.25,122.75z"/>
			<g>
				<defs fill="#2f2d2d">
					<path id="SVGID_00000048472516336095151860000006157603859200718768_" d="M176.25,122.75l15,8.25c0,0-9.25,30-10.917,41.333       c-1.667,11.333-8.167,28.167-23,28.667c-7.691,0.259-17.667-15.667-7.333-33S171.917,133.083,176.25,122.75z" fill="#2f2d2d"/>
				</defs>
				<clipPath id="SVGID_00000049931964783545403140000007356310786452586899_" fill="#2f2d2d">
					<use xlink:href="#SVGID_00000048472516336095151860000006157603859200718768_" style="overflow:visible;" fill="#2f2d2d"/>
				</clipPath>
				<g style="opacity:0.54;clip-path:url(#SVGID_00000049931964783545403140000007356310786452586899_);">
					<circle style="fill:#2f2d2d;" cx="171.441" cy="138.889" r="13.5"/>
					<circle style="fill:#2f2d2d;" cx="177.5" cy="170.5" r="13.5"/>
					<circle style="fill:#2f2d2d;" cx="149.5" cy="183.5" r="13.5"/>
				</g>
			</g>
			<g>
				<g>
					<g>
						<path style="fill:#FFFFFF;" d="M174.5,126.25c-0.419,0.456-0.686,0.774-1.035,1.403c-0.424,0.762-1.695,3.049-2.86,5.147        c-1.435,2.532-2.739,4.835-2.739,4.835s-1.334,2.284-2.802,4.797c-0.741,1.244-1.545,2.558-2.219,3.622        c-0.257,0.398-0.467,0.725-0.572,0.888c-0.385,0.605-0.558,0.974-0.772,1.559c0.457-0.411,0.77-0.698,1.164-1.303        c0.106-0.164,0.319-0.492,0.578-0.892c0.678-1.069,1.483-2.386,2.225-3.633c1.468-2.517,2.803-4.805,2.803-4.805        s1.307-2.304,2.744-4.837c1.165-2.099,2.436-4.389,2.859-5.151C174.218,127.246,174.344,126.849,174.5,126.25z"/>
					</g>
				</g>
			</g>
			<g>
				<g>
					<g>
						<path style="fill:#FFFFFF;" d="M190.87,131.295c-0.337,0.52-0.544,0.881-0.776,1.563c-0.179,0.546-0.538,1.639-0.975,2.972        c-1.066,3.304-2.258,7.223-3.302,11.001c-1.052,3.775-1.923,7.418-2.463,10.131c-0.268,1.358-0.467,2.476-0.6,3.255        c-0.135,0.778-0.212,1.217-0.212,1.217s-0.306,1.753-0.781,4.47c-0.488,2.712-1.156,6.388-2.16,10.161        c-0.978,3.755-2.425,7.663-3.975,10.634c-0.213,0.422-0.385,0.77-0.485,0.936c-0.348,0.625-0.476,1.017-0.643,1.617        c0.424-0.447,0.696-0.766,1.054-1.394c0.103-0.167,0.277-0.518,0.493-0.944c0.769-1.45,1.543-3.271,2.228-5.076        c0.697-1.828,1.268-3.757,1.783-5.651c1.01-3.797,1.678-7.484,2.167-10.2c0.474-2.718,0.78-4.472,0.78-4.472        s0.076-0.438,0.212-1.216c0.132-0.779,0.332-1.895,0.598-3.243c0.538-2.698,1.406-6.33,2.457-10.097        c1.042-3.77,2.233-7.683,3.297-10.982c0.435-1.331,0.792-2.423,0.97-2.968C190.763,132.323,190.816,131.912,190.87,131.295z"/>
					</g>
				</g>
			</g>
		</g>
		<g>
			<g>
				<polygon style="fill:#ffcd94;" points="253.5,253.5 253.167,268.833 269.833,269 269.5,254.833     "/>
				<path style="fill:#ffcd94;" d="M253.167,268.833l-0.667,23.333c0,0-0.167,2,1.333,1.667c1.5-0.333,2-4,2-4l1.667-14.667      l0.5,16.667c0,0-0.167,2.167,1.333,2.5c1.5,0.333,1.667-2.5,2-4.333c0.333-1.833,1-15,1-15L263,292c0,0,0.167,2,1.333,1.833      c1.167-0.167,1.333-3,1.5-5.167l0.5-13.833l1.333,12.333c0,0,0.5,2,2,0.833c1.002-0.779,0.167-19,0.167-19L253.167,268.833z"/>
				<path style="fill:#ffcd94;" d="M253.5,255.667c0,0-7.167,14-8.667,17.167C243.333,276,245,276.5,246,276.167      c1-0.333,7.333-10,7.333-10L253.5,255.667z"/>
				<g>
					<g>
						<g>
							<path style="fill:#2f2d2d;" d="M257.167,282.333c0.279-0.994,0.433-1.669,0.475-2.867c0.006-0.204,0.017-0.534,0.038-1.219         c0.011-0.4,0.037-1.346,0.037-1.346s0.025-0.792,0.039-1.231c0.026-0.916,0.041-1.482,0.05-1.779         c0.029-1.198-0.086-1.882-0.305-2.89c-0.279,0.994-0.433,1.669-0.475,2.867c-0.009,0.297-0.027,0.863-0.055,1.779         c-0.012,0.439-0.034,1.231-0.034,1.231s-0.029,0.946-0.042,1.346c-0.019,0.686-0.028,1.016-0.034,1.22         C256.832,280.641,256.947,281.325,257.167,282.333z"/>
						</g>
					</g>
				</g>
				<g>
					<g>
						<g>
							<path style="fill:#2f2d2d;" d="M262.167,283.333c0.263-0.998,0.407-1.676,0.43-2.874c0.003-0.204,0.008-0.534,0.019-1.22         c0.006-0.502,0.021-1.692,0.021-1.692s0.016-0.996,0.024-1.548c0.011-0.916,0.018-1.483,0.022-1.78         c0.011-1.199-0.115-1.88-0.35-2.885c-0.263,0.998-0.407,1.676-0.43,2.874c-0.005,0.297-0.013,0.864-0.027,1.78         c-0.007,0.552-0.019,1.548-0.019,1.548s-0.018,1.19-0.026,1.692c-0.008,0.686-0.012,1.016-0.015,1.22         C261.806,281.647,261.931,282.328,262.167,283.333z"/>
						</g>
					</g>
				</g>
				<g>
					<g>
						<g>
							<path style="fill:#2f2d2d;" d="M266.333,281.167c0.283-0.993,0.44-1.668,0.486-2.865c0.007-0.204,0.019-0.534,0.043-1.219         c0.006-0.193,0.019-0.65,0.019-0.65s0.015-0.383,0.023-0.595c0.029-0.916,0.047-1.481,0.057-1.779         c0.034-1.198-0.078-1.882-0.294-2.891c-0.282,0.993-0.44,1.668-0.486,2.865c-0.01,0.298-0.03,0.863-0.062,1.779         c-0.006,0.212-0.017,0.595-0.017,0.595s-0.017,0.457-0.024,0.65c-0.022,0.686-0.032,1.016-0.038,1.219         C266.006,279.474,266.118,280.158,266.333,281.167z"/>
						</g>
					</g>
				</g>
			</g>
			<path style="fill:#2f2d2d;" d="M252.125,129.625c0,0,13.208,7.042,17.875,33.708c4.667,26.667,7,42,7,50.667     s-6.333,41.333-6.333,41.333L251.5,254.5L252.125,129.625z"/>
			<g>
				<defs fill="#2f2d2d">
					<path id="SVGID_00000181794789810598167720000011066460515465730493_" d="M252.125,129.625c0,0,13.208,7.042,17.875,33.708       c4.667,26.667,7,42,7,50.667s-6.333,41.333-6.333,41.333L251.5,254.5L252.125,129.625z" fill="#2f2d2d"/>
				</defs>
				<clipPath id="SVGID_00000018924110787113691110000017280317865237629328_" fill="#2f2d2d">
					<use xlink:href="#SVGID_00000181794789810598167720000011066460515465730493_" style="overflow:visible;" fill="#2f2d2d"/>
				</clipPath>
				<g style="opacity:0.54;clip-path:url(#SVGID_00000018924110787113691110000017280317865237629328_);">
					<circle style="fill:#2f2d2d;" cx="266" cy="144" r="13.5"/>
					<circle style="fill:#2f2d2d;" cx="266" cy="181" r="13.5"/>
					<circle style="fill:#2f2d2d;" cx="259" cy="240.5" r="13.5"/>
					<circle style="fill:#2f2d2d;" cx="274" cy="214.5" r="13.5"/>
				</g>
			</g>
			<g>
				<g>
					<g>
						<path style="fill:#FFFFFF;" d="M252,230c0.16-0.598,0.248-1.005,0.265-1.723c0.103-5.706,0.617-34.282,0.617-34.282        s0.476-26.475,0.571-31.762c0.009-0.719-0.064-1.129-0.203-1.732c-0.16,0.598-0.249,1.004-0.265,1.723        c-0.095,5.287-0.571,31.762-0.571,31.762s-0.514,28.576-0.617,34.282C251.788,228.987,251.861,229.396,252,230z"/>
					</g>
				</g>
			</g>
			<g>
				<g>
					<g>
						<path style="fill:#FFFFFF;" d="M252.5,214.25c0.275-0.555,0.442-0.936,0.6-1.637c0.551-2.506,3.31-15.05,3.31-15.05        s2.595-11.8,3.114-14.158c0.151-0.703,0.16-1.119,0.143-1.738c-0.275,0.555-0.442,0.936-0.6,1.637        c-0.518,2.358-3.114,14.158-3.114,14.158s-2.759,12.544-3.31,15.05C252.492,213.215,252.483,213.631,252.5,214.25z"/>
					</g>
				</g>
			</g>
		</g>
	</g>
	<g>
		<g>
			<g>
				<g>
					<polygon style="fill:#2f2d2d;" points="193.367,114.217 192.391,92.936 186.273,81.325 181.197,94.896      "/>
					<g>
						<g>
							<path style="fill:#FFFFFF;" d="M193.367,114.217c0.122-0.607,0.184-1.018,0.155-1.737c-0.053-1.164-0.173-3.808-0.3-6.588         c-0.119-2.592-0.241-5.248-0.351-7.653c-0.055-1.202-0.108-2.342-0.155-3.381c-0.024-0.519-0.047-1.013-0.068-1.476         c-0.005-0.116-0.011-0.23-0.016-0.342c-0.01-0.031,0.018-0.166-0.055-0.258l-0.077-0.146         c-0.101-0.191-0.198-0.375-0.29-0.551c-2.222-4.216-3.875-7.353-4.945-9.383c-0.327-0.62-0.609-1.155-0.846-1.605         c-0.049-0.092-0.096-0.182-0.142-0.27l-0.035-0.066c-0.011-0.009-0.018,0.037-0.027,0.053l-0.05,0.134         c-0.066,0.177-0.129,0.344-0.188,0.503c-0.079,0.211-0.149,0.398-0.209,0.56c-0.181,0.485-0.252,0.674-0.21,0.563         c-0.456,1.218-0.468,1.252-0.468,1.252s-0.338,0.902-1.111,2.969c-0.387,1.033-0.882,2.357-1.499,4.005         c-0.308,0.824-0.647,1.729-1.017,2.719c-0.093,0.247-0.187,0.5-0.284,0.758l-0.146,0.391l-0.061,0.162         c-0.009,0.033-0.032,0.067-0.03,0.099l0.057,0.09l0.146,0.231c0.306,0.486,0.625,0.992,0.956,1.518         c2.269,3.602,8.46,13.429,10.149,16.111C192.634,113.487,192.92,113.788,193.367,114.217         c-0.194-0.588-0.343-0.976-0.723-1.587c-1.689-2.682-7.879-12.509-10.148-16.112c-0.331-0.526-0.65-1.031-0.956-1.517         c-0.028-0.045-0.101-0.161-0.083-0.131c0.006-0.016-0.014,0.037,0.014-0.036l0.146-0.391         c0.097-0.258,0.191-0.511,0.284-0.758c0.37-0.99,0.709-1.895,1.017-2.719c0.616-1.648,1.111-2.972,1.498-4.006         c0.773-2.067,1.11-2.969,1.11-2.969s0.013-0.034,0.468-1.252c-0.042,0.111,0.029-0.077,0.211-0.563         c0.14-0.374,0.1-0.266,0.104-0.279l0,0c0.053,0.101,0.108,0.206,0.166,0.315c0.116,0.219,0.24,0.456,0.374,0.709         c1.07,2.031,2.723,5.168,4.944,9.384c0.093,0.176,0.19,0.36,0.29,0.551L192.159,93c0,0-0.001-0.016,0.003,0.063         c0.005,0.112,0.01,0.226,0.016,0.342c0.021,0.463,0.044,0.957,0.067,1.476c0.048,1.038,0.1,2.178,0.155,3.381         c0.11,2.405,0.232,5.061,0.351,7.653c0.128,2.78,0.25,5.424,0.304,6.588C193.091,113.22,193.19,113.624,193.367,114.217z"/>
						</g>
					</g>
				</g>
				<g>
					<path style="fill:#2f2d2d;" d="M181.51,96.006l8.614,17.729c0.526,1.11,1.818,1.504,2.763,0.842l0,0       c0.794-0.556,1.066-1.673,0.636-2.612l-8.358-18.256L181.51,96.006z"/>
					<g>
						<g>
							<path style="fill:#FFFFFF;" d="M181.51,96.006c0.128,0.606,0.234,1.008,0.545,1.656c0.78,1.605,3.121,6.425,5.268,10.844         c0.699,1.437,1.381,2.842,2.012,4.141c0.158,0.325,0.312,0.643,0.463,0.953c0.134,0.297,0.328,0.663,0.591,0.906         c0.515,0.521,1.262,0.723,1.888,0.583c0.633-0.132,1.101-0.55,1.354-0.983c0.261-0.437,0.331-0.883,0.33-1.237         c-0.023-0.717-0.276-1.081-0.254-1.068c0,0-2.419-5.285-5.079-11.099c-0.665-1.453-1.345-2.939-2.007-4.384         c-0.331-0.722-0.657-1.434-0.974-2.127c-0.107-0.233-0.213-0.464-0.318-0.694l-0.059-0.128         c-0.036,0.011-0.078,0.046-0.117,0.068l-0.238,0.149l-0.286,0.18c-0.301,0.189-0.596,0.374-0.884,0.556         c-0.402,0.254-0.732,0.461-0.896,0.565C182.241,95.274,181.939,95.559,181.51,96.006c0.588-0.193,0.977-0.342,1.587-0.721         c0.165-0.103,0.495-0.31,0.898-0.563c0.289-0.181,0.584-0.367,0.884-0.556l0.184-0.116l-0.001,0         c-0.035-0.077,0.081,0.178,0.154,0.337c0.317,0.692,0.643,1.404,0.974,2.127c0.661,1.445,1.342,2.931,2.007,4.384         c2.662,5.813,5.082,11.097,5.082,11.097s0.033,0.077,0.094,0.223c0.049,0.145,0.111,0.365,0.117,0.654         c0,0.286-0.057,0.647-0.264,0.993c-0.199,0.342-0.566,0.664-1.047,0.764c-0.475,0.107-1.053-0.045-1.462-0.458         c-0.216-0.209-0.346-0.446-0.497-0.775c-0.151-0.31-0.305-0.628-0.463-0.953c-0.631-1.299-1.314-2.704-2.012-4.142         c-2.148-4.419-4.491-9.239-5.271-10.844C182.158,96.812,181.907,96.481,181.51,96.006z"/>
						</g>
					</g>
				</g>
				<path style="fill:#FFFFFF;" d="M190.908,98.098c-0.407-0.848-1.19-1.318-1.749-1.05c-0.559,0.268-0.682,1.173-0.276,2.021      c0.407,0.848,1.19,1.318,1.749,1.05C191.191,99.851,191.315,98.946,190.908,98.098z"/>
			</g>
			<g>
				<path style="fill:#ffcd94;" d="M194.534,124.632c0,0,3.275-3.965,3.433-7.378c0.235-5.094-1.86-10.503-3.034-12.834      c-1.174-2.331-2.939,2.044-1.749,5.895c1.19,3.852-0.764,5.721-1.967,4.664c-1.203-1.056-10.724-11.811-10.724-11.811      l-5.721-0.764l6.803,18.345L194.534,124.632z"/>
				<path style="fill:#ffcd94;" d="M177.565,102.882l2.113-7.187l7.152-4.059c0,0,0.161,3.78-4.254,6.085l-2.082,5.447      L177.565,102.882z"/>
				<path style="fill:#ffcd94;" d="M175.953,102.618l2.319-9.172c0.092-0.366,0.334-0.676,0.665-0.856l7.819-4.241      c0,0,1.044,1.592-1.562,4.085l-5.516,3.262l-2.113,7.187L175.953,102.618z"/>
				<path style="fill:#ffcd94;" d="M174.772,102.403l1.923-9.899c0.045-0.233,0.151-0.45,0.305-0.63l7.767-9.013      c0,0,1.449,1.013-0.085,3.823c-1.533,2.811-3.328,4.144-3.328,4.144l-2.939,2.044l-2.36,9.854L174.772,102.403z"/>
				<g>
					<g>
						<g>
							<path style="fill:#2f2d2d;" d="M177.611,102.662c0.524-0.889,0.846-1.503,1.193-2.65c0.058-0.195,0.153-0.511,0.349-1.169         c0.099-0.334,0.266-0.896,0.408-1.374c0.128-0.437,0.317-0.76,0.317-0.76s0.146-0.278,0.404-0.582         c0.252-0.31,0.635-0.615,0.933-0.79c0.8-0.425,1.295-0.688,1.554-0.826c1.058-0.563,1.597-0.999,2.367-1.686         c-1.002,0.246-1.667,0.443-2.73,0.995c-0.266,0.14-0.772,0.408-1.592,0.841c-0.363,0.211-0.826,0.583-1.131,0.96         c-0.312,0.37-0.487,0.708-0.487,0.708s-0.232,0.394-0.387,0.917c-0.142,0.479-0.309,1.04-0.408,1.374         c-0.194,0.658-0.287,0.975-0.345,1.17C177.721,100.941,177.657,101.632,177.611,102.662z"/>
						</g>
					</g>
				</g>
				<g>
					<g>
						<g>
							<path style="fill:#2f2d2d;" d="M176.264,102.224c0.462-0.923,0.742-1.555,1.01-2.723c0.045-0.199,0.118-0.52,0.269-1.189         c0.111-0.501,0.376-1.687,0.376-1.687s0.224-0.992,0.348-1.542c0.05-0.222,0.096-0.422,0.136-0.603         c0.041-0.152,0.094-0.297,0.143-0.417c0.101-0.243,0.202-0.409,0.273-0.521c0.579-0.905,1.151-1.236,1.907-1.967         c-0.503,0.148-0.898,0.234-1.344,0.444c-0.43,0.215-0.853,0.547-1.218,1.101c-0.088,0.137-0.214,0.341-0.34,0.64         c-0.063,0.151-0.125,0.318-0.181,0.527c-0.042,0.184-0.088,0.387-0.14,0.612c-0.123,0.551-0.344,1.546-0.344,1.546         s-0.268,1.187-0.381,1.689c-0.149,0.671-0.221,0.993-0.265,1.192C176.257,100.498,176.24,101.192,176.264,102.224z"/>
						</g>
					</g>
				</g>
			</g>
			<polygon style="fill:#ffcd94;" points="194.534,124.632 190.87,131.295 180.629,126.507 181.175,119.556    "/>
		</g>
		<g>
			<g>
				<g>
					<g>
						<path style="fill:#2f2d2d;" d="M183.345,77.333c-0.23-1.006-0.417-1.674-0.953-2.746        c-1.758-3.473-10.561-20.864-10.561-20.864s-8.303-16.404-9.961-19.68c-0.547-1.067-0.974-1.612-1.649-2.393        c0.23,1.006,0.417,1.673,0.953,2.746c1.658,3.276,9.961,19.68,9.961,19.68s8.803,17.39,10.561,20.864        C182.243,76.007,182.67,76.552,183.345,77.333z"/>
					</g>
				</g>
			</g>
			<g>
				<g>
					<g>
						<path style="fill:#2f2d2d;" d="M179.334,81.272c-0.63-0.818-1.079-1.346-2.014-2.095        c-2.541-2.016-15.263-12.109-15.263-12.109s-12.073-9.578-14.484-11.491c-0.943-0.74-1.559-1.057-2.499-1.484        c0.63,0.818,1.079,1.346,2.014,2.095c2.411,1.913,14.484,11.491,14.484,11.491s12.722,10.093,15.264,12.109        C177.778,80.528,178.395,80.845,179.334,81.272z"/>
					</g>
				</g>
			</g>
			<g>
				<g>
					<g>
						<path style="fill:#2f2d2d;" d="M176.03,86.251c-0.917-0.473-1.548-0.761-2.712-1.043c-3.581-0.848-21.511-5.095-21.511-5.095        s-16.942-4.013-20.326-4.815c-1.168-0.271-1.86-0.296-2.892-0.284c0.917,0.473,1.548,0.761,2.712,1.043        c3.384,0.802,20.326,4.815,20.326,4.815s17.93,4.247,21.511,5.095C174.305,86.238,174.998,86.263,176.03,86.251z"/>
					</g>
				</g>
			</g>
		</g>
	</g>
</g>
</svg>