<svg xmlns="http://www.w3.org/2000/svg" xmlns:xlink="http://www.w3.org/1999/xlink" version="1.1" x="0px" y="0px" viewBox="0 0 94 117.5" style="enable-background:new 0 0 94 94;" xml:space="preserve"><g><g><path d="M71.743,6.86c-0.557,0.166-1.11,0.344-1.656,0.547c-4.835,2.004-9.879,3.38-14.843,5.015    c-3.873,1.29-7.707,2.708-11.494,4.234c-2.977,1.309-5.892,2.749-8.895,4.001c-2.244,0.932-4.164,2.451-6.297,3.593    c-2.285,1.137-4.214,2.802-6.298,4.246c1.459,1.456,3.322,2.287,5.108,3.254c1.555,0.942,2.985,2.076,4.581,2.952    c0.959,0.548,1.965,1.009,2.942,1.524c0.096-0.114,0.205-0.219,0.316-0.319c2.878-2.673,5.773-5.329,8.735-7.91    c5.054-4.09,10.018-8.283,15.171-12.258c2.062-1.576,4.333-2.852,6.428-4.384C67.619,9.894,69.674,8.356,71.743,6.86z     M77.391,9.374c0.321-0.861,0.539-1.76,0.751-2.661c-0.761,0.738-1.546,1.46-2.199,2.281c-4.098,3.928-7.618,8.524-11.576,12.568    c-2.852,3.083-5.081,6.629-7.747,9.863c-1.832,2.294-3.371,4.801-5.151,7.134c-0.724,1.125-1.448,2.25-2.345,3.249    c0.626,0.379,1.239,0.814,1.763,1.027c2.621,0.969,5.268,1.865,7.887,2.847c2.478,0.914,4.904,2.053,7.531,2.485    c0.647-3.726,1.386-7.439,2.586-11.03c1.067-3.867,1.85-7.817,3.129-11.622C74.005,20.15,75.433,14.771,77.391,9.374z     M80.758,3.364c0.009,0.055,0.011,0.114,0.007,0.173c-0.373,2.184-0.88,4.436-1.538,6.545c-1.351,3.954-2.733,7.89-3.864,11.914    c-1.493,3.802-2.699,7.692-3.616,11.672c-1.05,4.396-2.524,8.681-3.31,13.142c-0.352,1.047-0.071,2.762-0.94,3.469    c-1.999,0.93-6.17-1.091-8.193-1.826c-1.719-0.603-3.425-1.24-5.121-1.902c-2.331-0.674-4.537-1.603-6.612-2.856    c-1.406,2.48-2.347,5.191-4.122,7.457c-0.795,0.927-1.966,4.92-3.55,3.538c-0.208-0.221-0.311-0.462-0.34-0.711    c-0.114-0.132-0.188-0.296-0.24-0.467c-0.497-1.484-1.212-2.878-1.775-4.336c-0.728-1.999-1.492-3.987-2.097-6.026    c-0.408-1.437-0.531-2.991-0.844-4.374c-2.929-1.377-5.625-3.128-8.311-4.918c-1.712-0.92-3.544-1.701-4.931-3.111    c-0.894-0.783-2.814-1.388-2.025-2.895c0.508-0.796,1.464-1.172,2.211-1.705c2.49-1.969,5.173-3.619,7.953-5.143    c2.575-1.775,5.448-2.993,8.318-4.199c1.892-0.853,3.748-1.786,5.671-2.569c6.799-2.771,13.793-4.997,20.8-7.169    c2.014-0.704,3.956-1.589,5.981-2.259c2.723-0.906,5.567-1.394,8.232-2.48C78.923,2.158,79.355,2.013,79.815,2    C80.494,2.001,80.856,2.737,80.758,3.364z"/><path d="M40.589,54.682c-0.515-0.917,0.451-1.675,1.095-2.189c1.702-1.699,3.797-2.903,5.594-4.494    c1.547-1.149,3.08-2.322,4.636-3.459c0.918-0.875,2.29-0.416,2.016,0.954c-0.265,0.956-1.312,1.319-2.034,1.875    c-0.763,0.523-1.507,1.076-2.266,1.605c-1.559,1.062-2.963,2.331-4.564,3.335c-1.089,0.68-1.994,1.596-3.019,2.361    C41.621,55.099,40.942,55.333,40.589,54.682z"/><path d="M30.03,91.775c-0.298-0.304-0.369-0.846-0.145-1.214c1.318-2.436,3.28-4.45,4.581-6.889    c0.683-1.657,1.221-3.434,1.235-5.239c-2.876,1.269-6.995,1.611-9.298-0.901c-1.562-2.114-1.739-5.335,0.027-7.382    c4.022-4.723,9.699-0.047,10.783,4.723c2.571-3.074,2.588-7.708,1.242-11.323c-0.413-0.882-1.576-2.158-0.43-2.953    c1.425-0.648,2.581,3.293,2.727,4.317c0.803,4.224,0.346,9.32-3.105,12.287c0.445,4.427-1.461,8.67-4.327,11.951    c-0.714,0.904-1.467,1.776-2.248,2.622C30.795,92.086,30.312,92.064,30.03,91.775z M32.279,77.152    c1.133-0.099,2.248-0.404,3.23-0.986c-0.507-3.028-3.423-7.098-6.843-5.279c-1.715,1.096-2.098,3.534-0.871,5.137    C28.958,77.166,30.74,77.262,32.279,77.152z"/><path d="M13.342,46.574c-0.59-1.286,1.222-1.894,1.936-2.649c1.039-0.813,2.106-1.59,3.188-2.346    c0.758-0.335,2.427-2.331,3.051-1.226c0.198,0.357,0.129,0.86-0.202,1.117c-2.304,1.784-4.651,3.512-6.891,5.377    C14.071,47.145,13.554,46.957,13.342,46.574z"/><path d="M21.206,16.208c-0.784-1.251,1.664-2.084,2.414-2.737c3.231-2.056,6.534-3.997,9.932-5.766    c1.668-0.882,3.338-1.759,5.01-2.635c0.749-0.35,1.148,0.908,0.491,1.243c-5.669,3.077-11.356,6.14-16.756,9.677    C22.2,16.431,21.467,16.602,21.206,16.208z"/><path d="M52.479,62.15c-0.21-0.282-0.186-0.708,0.057-0.962c1.145-1.196,2.284-2.399,3.455-3.569    c0.984-0.966,1.977-1.921,2.997-2.848c0.522-0.607,1.7-1.298,1.619,0.065c-1.074,1.405-2.589,2.581-3.819,3.905    c-1.168,1.153-2.325,2.321-3.491,3.476C53.055,62.458,52.684,62.426,52.479,62.15z"/></g></g></svg>