<svg xmlns="http://www.w3.org/2000/svg" xmlns:xlink="http://www.w3.org/1999/xlink" version="1.1" x="0px" y="0px" viewBox="0 0 100 125" enable-background="new 0 0 100 100" xml:space="preserve"><g><path fill="none" d="M61.026,52.884c0.377-1.091,0.334-2.008-0.455-2.798C59.998,51.047,59.495,52.001,61.026,52.884z"/><path fill="none" d="M33.909,19.778c2.15,0.253,2.493-0.134,2.493-2.617c0.075-0.787-0.162-1.729-0.544-2.629   c-1.781-4.188-5.43-6.208-9.366-7.704c-2.099-0.798-4.044,1.142-3.486,3.304C24.787,17.017,27.245,18.993,33.909,19.778z"/><path fill="none" d="M30.271,21.347c0.441,0.891,0.264,2.219,1.557,2.342c0.723,0.069,1.203-0.617,1.123-1.23   C32.734,20.813,31.138,21.951,30.271,21.347z"/><path fill="none" d="M26.323,19.733c0.381,1.276,0.699,2.243,0.954,3.227c0.194,0.749,0.848,0.792,1.296,0.658   c0.685-0.205,0.256-0.8,0.102-1.192C28.271,21.405,27.792,20.42,26.323,19.733z"/><path fill="none" d="M74.515,70.113c1.282-0.307,2.473-0.83,2.683-2.391c0.065-0.489-0.228-0.927-0.86-0.946   c-0.763-0.023-3.093,1.852-3.086,2.542C73.261,70.131,73.905,70.056,74.515,70.113z"/><path fill="none" d="M56.199,47.426c0.032-0.869-0.381-0.974-1.136-1.022c-2.109-0.134-4.107-0.651-5.865-1.94   c-2.54-1.863-4.333-4.488-6.607-6.55c-3.699-3.352-6.802-7.103-9.545-11.202c-0.513-0.767-0.989-1-1.856-0.923   c-2.383,0.213-4.658-0.158-6.843-1.232c-2.639-1.297-5.074-2.841-7.087-5.392c-0.076,0.677-0.17,1.015-0.143,1.345   c0.343,4.177,1.859,7.912,4.316,11.28c0.78,1.069,1.617,2.096,2.379,3.177c1.442,2.043,2.633,4.246,4.515,5.988   c3.513,3.251,7.349,6.11,10.855,9.398c4.134,3.876,9.52,6.127,14.528,8.849c3.758,2.044,7.44,2.871,11.576,2.438   c2.141-0.225,3.915-1.078,5.312-2.846c-0.557,0-1.115,0.009-1.672-0.001C62.481,58.677,55.979,53.346,56.199,47.426z"/><path fill="none" d="M74.696,49.723c-0.567-1.452-1.498-2.651-2.379-3.892c-1.842-2.596-4.272-3.523-7.345-2.837   c-2.709,0.606-3.536,1.928-2.901,4.658c0.891,3.831,4.14,5.907,8.71,5.729c0.556-0.027,1.114-0.029,1.668-0.084   C75.111,53.033,75.637,52.132,74.696,49.723z"/><path fill="none" d="M20.764,20.289c0.169-1.865,0.134-3.187,0.443-4.424c0.313-1.252,1.354-2.432-0.555-3.918   C20.842,14.762,18.493,17.145,20.764,20.289z"/><path fill="none" d="M24.957,22.52c0.183-0.051,0.366-0.103,0.549-0.154c-0.834-1.385,0.338-3.337-1.684-4.708   C24.247,19.478,24.602,20.999,24.957,22.52z"/><path fill="none" d="M20.714,7.834c-0.862,0.865-1.537,1.674-1.326,3.079C20.444,10.066,21.371,9.366,20.714,7.834z"/><path d="M85.064,92.351c-0.489-0.76-1.226-0.78-1.951-0.139c-0.995,0.878-2.151,0.703-3.041,0.006   c-2.531-1.984-4.573-4.282-4.298-7.866c0.075-0.976,0.168-1.378,1.352-1.468c2.382-0.182,4.12-1.91,4.527-3.991   c0.188-0.962,0.107-1.882-0.711-2.456c-0.794-0.557-1.75-0.455-2.595-0.009c-0.875,0.462-1.513,1.205-2.139,1.969   c-1.023,1.251-1.904,1.74-3.107-0.058c-1.124-1.679-1.537-3.373-1.453-5.305c0.042-0.973,0.238-1.315,1.381-0.996   c2.504,0.7,4.919-0.551,6.092-2.843c0.71-1.388,0.239-2.641-0.535-3.703c-0.713-0.978-1.852-1.009-3.047-0.722   c-1.522,0.365-2.501,1.44-3.84,2.319c-0.06-2.66-0.321-5.187,1.845-7.442c1.974-2.056,4.061-4.32,4.054-7.497   c-0.007-3.195-2.057-5.519-3.708-8.001c-1.358-2.042-3.302-2.994-5.659-3.468c-2.482-0.499-4.83-0.057-6.731,1.342   c-4.244,3.122-9.439,2.847-13.132-0.96c-1.493-1.539-2.726-3.374-4.303-4.746c-3.444-2.996-6.343-6.387-8.854-10.158   c-0.271-0.407-0.777-0.985-0.27-1.252c1.589-0.836,0.634-3.317,2.626-3.859c0.262-0.071,0.397-0.702,0.544-1.092   c0.875-2.308,0.469-4.539-0.519-6.688c-1.728-3.761-4.869-5.913-8.495-7.647c-3.271-1.564-9.693-0.057-11.481,3.106   c-4.318,7.639-3.614,15.466,0.908,22.436c3.845,5.927,7.891,11.841,14.021,16.118c4.137,2.887,7.538,6.866,12.021,9.45   c2.959,1.706,6.216,2.901,9.037,4.756c4.135,2.718,8.561,2.457,13.086,2.273c0.961-0.039,1.939-1.389,2.586-0.595   c0.506,0.622,0.24,2.002,0.08,3.008c-0.257,1.613,1.133,2.868,0.563,4.656c-1.304,4.094-0.205,7.731,3.097,10.544   c0.729,0.621,0.762,1.151,0.63,1.967c-0.764,4.741,1.657,8.055,5.17,10.657c1.609,1.192,3.647,1.373,5.529,0.252   C85.044,93.834,85.583,93.159,85.064,92.351z M76.338,66.776c0.632,0.019,0.926,0.458,0.86,0.946   c-0.21,1.561-1.401,2.084-2.683,2.391c-0.61-0.058-1.255,0.018-1.263-0.795C73.245,68.628,75.576,66.753,76.338,66.776z    M60.571,50.086c0.789,0.79,0.832,1.707,0.455,2.798C59.495,52.001,59.998,51.047,60.571,50.086z M26.492,6.829   c3.936,1.496,7.585,3.516,9.366,7.704c0.383,0.9,0.62,1.842,0.544,2.629c-0.001,2.483-0.343,2.87-2.493,2.617   c-6.665-0.784-9.123-2.761-10.903-9.645C22.448,7.971,24.393,6.031,26.492,6.829z M32.951,22.459   c0.08,0.613-0.399,1.299-1.123,1.23c-1.293-0.124-1.116-1.452-1.557-2.342C31.138,21.951,32.734,20.813,32.951,22.459z    M28.573,23.618c-0.448,0.134-1.102,0.091-1.296-0.658c-0.254-0.984-0.573-1.951-0.954-3.227c1.469,0.687,1.948,1.672,2.351,2.693   C28.829,22.818,29.257,23.413,28.573,23.618z M25.506,22.366c-0.183,0.051-0.366,0.103-0.549,0.154   c-0.356-1.521-0.71-3.042-1.135-4.862C25.844,19.028,24.672,20.98,25.506,22.366z M21.207,15.866   c-0.309,1.236-0.274,2.559-0.443,4.424c-2.271-3.144,0.078-5.528-0.112-8.341C22.56,13.434,21.52,14.614,21.207,15.866z    M20.714,7.834c0.657,1.533-0.27,2.232-1.326,3.079C19.177,9.508,19.852,8.698,20.714,7.834z M65.288,61.639   c-4.137,0.433-7.818-0.395-11.576-2.438c-5.007-2.723-10.393-4.974-14.528-8.849c-3.506-3.288-7.342-6.146-10.855-9.398   c-1.882-1.742-3.074-3.945-4.515-5.988c-0.763-1.081-1.599-2.108-2.379-3.177c-2.458-3.368-3.973-7.103-4.316-11.28   c-0.027-0.329,0.067-0.668,0.143-1.345c2.013,2.551,4.447,4.095,7.087,5.392c2.184,1.074,4.46,1.445,6.843,1.232   c0.866-0.078,1.343,0.156,1.856,0.923c2.742,4.1,5.846,7.85,9.545,11.202c2.274,2.061,4.067,4.686,6.607,6.55   c1.758,1.289,3.755,1.806,5.865,1.94c0.754,0.048,1.168,0.153,1.136,1.022c-0.219,5.92,6.283,11.251,12.729,11.367   c0.557,0.01,1.115,0.001,1.672,0.001C69.203,60.561,67.429,61.415,65.288,61.639z M62.072,47.653   c-0.636-2.73,0.191-4.053,2.901-4.658c3.073-0.687,5.503,0.241,7.345,2.837c0.881,1.241,1.812,2.44,2.379,3.892   c0.941,2.409,0.415,3.31-2.246,3.575c-0.553,0.055-1.111,0.057-1.668,0.084C66.213,53.56,62.964,51.484,62.072,47.653z"/></g></svg>