<svg version="1.1" id="Layer_1" xmlns="http://www.w3.org/2000/svg" xmlns:xlink="http://www.w3.org/1999/xlink" x="0px" y="0px" width="100%" viewBox="0 0 618 678" enable-background="new 0 0 618 678" xml:space="preserve" fill="#000">

<path xmlns="http://www.w3.org/2000/svg" opacity="1.000000" stroke="none" d=" M60.015732,616.998840   C60.011822,501.840668 59.825367,386.681915 60.216633,271.525085   C60.270348,255.715057 62.978691,239.888687 64.875572,224.120117   C65.961357,215.094101 66.857918,205.830948 69.665329,197.273514   C74.651543,182.074722 80.257980,166.974136 86.998688,152.480667   C97.329292,130.268417 111.835159,110.674316 128.584946,92.832825   C138.542236,82.226547 148.923248,72.067970 161.253281,64.059608   C172.223984,56.934135 182.571518,48.809753 193.775696,42.096992   C201.330460,37.570705 209.714462,34.221783 218.050522,31.253206   C231.555222,26.444002 245.114594,21.459824 259.044922,18.270788   C271.870117,15.334753 285.175720,14.148375 298.342407,13.162592   C309.037354,12.361868 319.851105,12.688963 330.592560,13.069323   C349.746979,13.747589 368.371094,17.620787 386.652557,23.285500   C403.135101,28.392813 419.250214,34.508232 434.226379,43.063816   C445.215302,49.341564 455.920715,56.262585 466.082458,63.800190   C476.427917,71.474060 486.491974,79.704010 495.679016,88.710693   C504.039703,96.907249 511.409393,106.201393 518.592896,115.493378   C532.511108,133.497025 541.767273,154.044022 550.080383,175.080231   C557.113403,192.877274 561.926208,211.255402 564.723999,230.127182   C566.033325,238.959290 566.893555,247.949249 566.903870,256.868896   C567.043945,378.359741 567.002258,499.850830 566.972473,621.341858   C566.971985,623.306335 566.559448,625.270752 565.787170,627.668884   C564.286194,628.373718 563.347351,628.834595 562.386658,628.885864   C554.737305,629.294312 547.086182,629.805725 539.430664,629.903564   C535.606384,629.952454 530.899475,631.499634 529.470032,625.986328   C536.967468,625.628418 543.997620,625.304138 551.174683,624.897400   C551.544495,624.493713 551.471680,624.230347 551.071106,623.555542   C550.994812,575.107910 550.950806,527.129456 550.938782,478.667603   C550.972107,461.778870 550.973450,445.373566 550.981689,428.501648   C550.981079,404.705536 550.973450,381.376038 550.974487,357.575073   C550.977295,327.389832 550.971436,297.676117 550.972961,267.497437   C549.651428,252.515320 549.200806,237.851959 546.813660,223.510956   C541.593506,192.150070 529.887939,163.107758 512.278381,136.606552   C496.415680,112.734245 476.984711,92.243416 453.870209,75.107536   C430.261963,57.605583 404.154022,45.630104 376.001129,37.868340   C353.665253,31.710323 330.960297,28.365749 307.689301,29.943201   C299.238800,30.516031 290.668152,30.092737 282.324005,31.305351   C261.231506,34.370613 240.740555,39.792641 221.001617,48.096317   C195.273193,58.919609 172.210266,73.863625 151.886475,92.814247   C130.303223,112.939262 112.837296,136.307907 99.892990,163.335815   C97.916603,167.737640 95.896637,171.742981 94.223816,175.888412   C87.697937,192.060257 82.180740,208.530792 79.959366,226.345703   C78.918945,236.136230 77.945343,245.529068 76.766159,255.283051   C76.406624,258.955048 76.127174,262.265564 76.118874,265.576752   C76.060127,289.019531 76.056976,312.462463 76.031197,336.333466   C76.083160,337.328430 76.140030,337.895264 76.186676,338.901581   C76.168327,355.818817 76.160202,372.296600 76.108086,389.255371   C76.061043,401.462555 76.057983,413.188721 76.036804,425.391602   C76.053253,432.643066 76.087822,439.417847 76.110435,446.648987   C76.074242,487.136200 76.046822,527.166992 76.039803,567.197815   C76.039566,568.518738 76.246452,569.839600 76.264030,571.610779   C76.075180,587.039856 75.979088,602.018616 75.448303,616.998352   C70.858551,616.459717 68.421341,617.388977 68.779984,622.485901   C68.899467,624.184021 66.644005,626.049377 65.474251,627.838257   C64.320618,626.032288 63.023907,624.299133 62.055916,622.398621   C61.187893,620.694458 60.681599,618.805969 60.015732,616.998840  z" fill="#000"/>
<path xmlns="http://www.w3.org/2000/svg" opacity="1.000000" stroke="none" d=" M60.010605,617.458740   C60.681599,618.805969 61.187893,620.694458 62.055916,622.398621   C63.023907,624.299133 64.320618,626.032288 65.474251,627.838257   C66.644005,626.049377 68.899467,624.184021 68.779984,622.485901   C68.421341,617.388977 70.858551,616.459717 75.515091,617.446777   C76.016579,620.340759 76.016579,622.787354 76.016579,625.788696   C169.382812,625.788696 262.101501,625.788696 355.259460,625.857605   C357.451935,625.882446 359.205170,625.838440 361.291565,625.826294   C362.070679,625.866516 362.516602,625.874939 363.431641,625.949036   C389.269653,626.006958 414.638550,625.999146 440.291199,625.978455   C440.762024,625.936279 440.949127,625.906982 441.596008,625.893311   C468.006866,625.844849 493.958008,625.780762 520.360352,625.781616   C523.541931,625.904419 526.272339,625.962158 529.002686,626.019897   C530.899475,631.499634 535.606384,629.952454 539.430664,629.903564   C547.086182,629.805725 554.737305,629.294312 562.386658,628.885864   C563.347351,628.834595 564.286194,628.373718 565.618774,628.051270   C565.769592,629.765747 565.536743,631.531494 565.148438,633.646484   C559.416504,639.861694 552.496948,641.111755 544.621216,641.104614   C389.377716,640.964172 234.133987,640.984070 78.890373,641.060364   C72.912163,641.063293 67.693550,639.914368 63.306953,635.153503   C60.586636,629.553772 59.344536,623.903381 60.010605,617.458740  z" fill="#000"/>

</svg>