<svg xmlns:dc="http://purl.org/dc/elements/1.1/" xmlns:cc="http://creativecommons.org/ns#" xmlns:rdf="http://www.w3.org/1999/02/22-rdf-syntax-ns#" xmlns:svg="http://www.w3.org/2000/svg" xmlns="http://www.w3.org/2000/svg" xmlns:sodipodi="http://sodipodi.sourceforge.net/DTD/sodipodi-0.dtd" xmlns:inkscape="http://www.inkscape.org/namespaces/inkscape" fill="#000000" version="1.1" x="0px" y="0px" viewBox="0 0 100 100"><path style="font-size:medium;font-style:normal;font-variant:normal;font-weight:normal;font-stretch:normal;text-indent:0;text-align:start;text-decoration:none;line-height:normal;letter-spacing:normal;word-spacing:normal;text-transform:none;direction:ltr;block-progression:tb;writing-mode:lr-tb;text-anchor:start;baseline-shift:baseline;opacity:1;color:#000000;fill:#000000;fill-opacity:1;stroke:none;stroke-width:2;marker:none;visibility:visible;display:inline;overflow:visible;enable-background:accumulate;font-family:Sans;-inkscape-font-specification:Sans" d="M 50 19 C 32.891017 19 19 32.891017 19 50 C 19 67.108983 32.891017 81 50 81 C 67.108982 81 81 67.108983 81 50 C 81 32.891017 67.108982 19 50 19 z M 50 21 C 66.028102 21 79 33.971897 79 50 C 79 66.028103 66.028102 79 50 79 C 33.971897 79 21 66.028103 21 50 C 21 33.971897 33.971897 21 50 21 z M 53.875 38 A 1.0001 1.0001 0 0 0 53.28125 38.28125 L 42.28125 49.28125 A 1.0001 1.0001 0 0 0 42.28125 50.71875 L 53.28125 61.71875 A 1.016466 1.016466 0 1 0 54.71875 60.28125 L 44.4375 50 L 54.71875 39.71875 A 1.0001 1.0001 0 0 0 53.875 38 z "/></svg>