<svg id="visual" viewBox="0 0 960 540" width="960" height="540" xmlns="http://www.w3.org/2000/svg" xmlns:xlink="http://www.w3.org/1999/xlink" version="1.1"><rect x="0" y="0" width="960" height="540" fill="#9a1d71"></rect><g transform="translate(894.0234820337462 524.1385420712668)"><path d="M250.5 -472.4C306.4 -401.7 320.8 -297.6 363.4 -213.3C406.1 -129 477.1 -64.5 489.8 7.3C502.5 79.2 456.9 158.3 427.4 265.5C398 372.7 384.6 507.8 316.1 566.1C247.5 624.3 123.8 605.7 36 543.2C-51.7 480.8 -103.3 374.6 -155.6 307C-207.8 239.3 -260.7 210.2 -281.2 165.4C-301.8 120.7 -290.1 60.3 -306 -9.2C-321.9 -78.7 -365.3 -157.3 -359.5 -227.6C-353.7 -297.9 -298.6 -359.8 -230.5 -423.5C-162.3 -487.2 -81.2 -552.6 8.1 -566.6C97.3 -580.6 194.7 -543.2 250.5 -472.4" fill="#eeaad7"></path></g></svg>