<svg id="visual" viewBox="0 0 900 600" width="900" height="600" xmlns="http://www.w3.org/2000/svg" xmlns:xlink="http://www.w3.org/1999/xlink" version="1.1"><g transform="translate(439.38283877642647 349.089057409445)"><path d="M146.8 -207.8C200.7 -162.8 262 -134 286.8 -86.4C311.6 -38.8 299.9 27.4 259.8 63.9C219.7 100.3 151.2 107.1 103.1 115.3C55.1 123.5 27.6 133.3 -19.8 160.5C-67.2 187.8 -134.4 232.7 -176.3 222.4C-218.1 212.2 -234.6 146.9 -251.9 84.1C-269.1 21.3 -287.2 -38.9 -274 -91.9C-260.7 -144.9 -216.2 -190.6 -165.3 -236.5C-114.4 -282.5 -57.2 -328.7 -5.4 -321.3C46.4 -313.9 92.9 -252.8 146.8 -207.8" fill="#eeaad7"/></g></svg>